<svg width="263" height="92" viewBox="0 0 263 92" fill="none" xmlns="http://www.w3.org/2000/svg">
<path d="M261 38C261 39.0609 260.579 40.0783 259.828 40.8284C259.078 41.5786 258.061 42 257 42H221C219.939 42 218.922 41.5786 218.172 40.8284C217.421 40.0783 217 39.0609 217 38V16C217 14.9391 217.421 13.9217 218.172 13.1716C218.922 12.4214 219.939 12 221 12H229L233 6H245L249 12H257C258.061 12 259.078 12.4214 259.828 13.1716C260.579 13.9217 261 14.9391 261 16V38Z" stroke="white" stroke-width="4" stroke-linecap="round" stroke-linejoin="round"/>
<path d="M239 34C243.418 34 247 30.4183 247 26C247 21.5817 243.418 18 239 18C234.582 18 231 21.5817 231 26C231 30.4183 234.582 34 239 34Z" stroke="white" stroke-width="4" stroke-linecap="round" stroke-linejoin="round"/>
<path d="M16.7799 38.36C14.8839 38.36 13.1199 38.06 11.4879 37.46C9.85591 36.836 8.42791 35.948 7.20391 34.796C5.97991 33.644 5.03191 32.276 4.35991 30.692C3.68791 29.084 3.35191 27.32 3.35191 25.4C3.35191 23.576 3.71191 21.884 4.43191 20.324C5.15191 18.764 6.13591 17.408 7.38391 16.256C8.63191 15.08 10.0719 14.18 11.7039 13.556C13.3359 12.908 15.0759 12.584 16.9239 12.584C18.3639 12.584 19.7559 12.788 21.0999 13.196C22.4679 13.58 23.6919 14.096 24.7719 14.744C25.8759 15.392 26.7639 16.1 27.4359 16.868L24.9879 19.892C24.1959 19.172 23.3679 18.56 22.5039 18.056C21.6399 17.528 20.7279 17.132 19.7679 16.868C18.8079 16.58 17.7879 16.436 16.7079 16.436C15.4839 16.436 14.3079 16.652 13.1799 17.084C12.0519 17.516 11.0439 18.128 10.1559 18.92C9.29191 19.688 8.59591 20.624 8.06791 21.728C7.56391 22.832 7.31191 24.056 7.31191 25.4C7.31191 26.84 7.56391 28.124 8.06791 29.252C8.59591 30.38 9.31591 31.34 10.2279 32.132C11.1639 32.9 12.2199 33.488 13.3959 33.896C14.5959 34.304 15.8679 34.508 17.2119 34.508C18.3879 34.508 19.4559 34.364 20.4159 34.076C21.3759 33.764 22.2519 33.368 23.0439 32.888C23.8359 32.384 24.5559 31.868 25.2039 31.34L27.1119 34.544C26.4879 35.144 25.6359 35.744 24.5559 36.344C23.4999 36.92 22.2999 37.4 20.9559 37.784C19.6359 38.168 18.2439 38.36 16.7799 38.36ZM43.5515 38.36C41.6075 38.36 39.8795 37.94 38.3675 37.1C36.8555 36.236 35.6675 35.06 34.8035 33.572C33.9635 32.084 33.5435 30.404 33.5435 28.532C33.5435 26.612 33.9875 24.92 34.8755 23.456C35.7635 21.968 36.9755 20.804 38.5115 19.964C40.0715 19.124 41.8475 18.704 43.8395 18.704C45.0395 18.704 46.1555 18.86 47.1875 19.172C48.2195 19.484 49.1195 19.904 49.8875 20.432C50.6555 20.936 51.2675 21.512 51.7235 22.16C52.1795 22.784 52.4195 23.42 52.4435 24.068L51.4715 23.996V19.1H55.2155V38H51.4715V33.104L52.2635 33.14C52.2155 33.74 51.9395 34.352 51.4355 34.976C50.9555 35.576 50.3075 36.14 49.4915 36.668C48.6995 37.172 47.7875 37.58 46.7555 37.892C45.7475 38.204 44.6795 38.36 43.5515 38.36ZM44.4515 34.94C45.8675 34.94 47.1155 34.664 48.1955 34.112C49.2755 33.536 50.1155 32.768 50.7155 31.808C51.3155 30.824 51.6155 29.732 51.6155 28.532C51.6155 27.308 51.3155 26.216 50.7155 25.256C50.1155 24.296 49.2755 23.54 48.1955 22.988C47.1155 22.436 45.8675 22.16 44.4515 22.16C43.0595 22.16 41.8235 22.436 40.7435 22.988C39.6875 23.54 38.8475 24.296 38.2235 25.256C37.6235 26.216 37.3235 27.308 37.3235 28.532C37.3235 29.732 37.6235 30.824 38.2235 31.808C38.8475 32.768 39.6875 33.536 40.7435 34.112C41.8235 34.664 43.0595 34.94 44.4515 34.94ZM72.8668 38.36C71.3308 38.36 69.9868 38.012 68.8348 37.316C67.7068 36.596 66.8188 35.576 66.1708 34.256C65.5468 32.936 65.2348 31.364 65.2348 29.54V19.1H68.9428V28.352C68.9428 29.744 69.1348 30.932 69.5188 31.916C69.9268 32.876 70.5268 33.608 71.3188 34.112C72.1348 34.616 73.1548 34.868 74.3788 34.868C75.2188 34.868 76.0108 34.736 76.7548 34.472C77.4988 34.184 78.1468 33.788 78.6988 33.284C79.2748 32.78 79.7188 32.168 80.0308 31.448C80.3668 30.728 80.5348 29.936 80.5348 29.072V19.1H84.2428V38H80.5348V34.04L81.1828 33.608C80.8708 34.4 80.3308 35.168 79.5628 35.912C78.7948 36.632 77.8348 37.22 76.6828 37.676C75.5548 38.132 74.2828 38.36 72.8668 38.36ZM104.093 38.36C101.837 38.36 99.8334 37.952 98.0814 37.136C96.3294 36.296 94.9614 35.156 93.9774 33.716C92.9934 32.252 92.5014 30.596 92.5014 28.748C92.5014 27.212 92.7894 25.832 93.3654 24.608C93.9414 23.36 94.7454 22.304 95.7774 21.44C96.8094 20.552 98.0094 19.868 99.3774 19.388C100.745 18.908 102.209 18.668 103.769 18.668C105.185 18.668 106.517 18.896 107.765 19.352C109.013 19.808 110.105 20.444 111.041 21.26C111.977 22.076 112.697 23.048 113.201 24.176C113.705 25.28 113.945 26.504 113.921 27.848L113.885 29.648H95.6334L94.8054 26.696H110.681L110.141 27.092V26.228C110.045 25.412 109.685 24.692 109.061 24.068C108.437 23.444 107.657 22.964 106.721 22.628C105.809 22.268 104.825 22.088 103.769 22.088C102.281 22.088 100.961 22.316 99.8094 22.772C98.6574 23.204 97.7574 23.9 97.1094 24.86C96.4854 25.796 96.1734 27.008 96.1734 28.496C96.1734 29.792 96.5214 30.932 97.2174 31.916C97.9374 32.876 98.9334 33.62 100.205 34.148C101.501 34.676 102.977 34.94 104.633 34.94C106.145 34.94 107.429 34.736 108.485 34.328C109.565 33.896 110.525 33.368 111.365 32.744L113.093 35.48C112.445 36.008 111.629 36.488 110.645 36.92C109.685 37.352 108.629 37.7 107.477 37.964C106.349 38.228 105.221 38.36 104.093 38.36ZM99.4494 16.148L98.0814 14.96L102.221 10.892H105.317L109.457 14.96L108.089 16.148L103.229 13.52H104.309L99.4494 16.148ZM120.304 38V34.904L132.724 21.872L133.084 22.232H120.304V19.1H136.9V22.124L124.588 34.976L124.12 34.868H137.116V38H120.304ZM145.687 38V19.1H149.395V38H145.687ZM147.487 14.708C146.695 14.708 146.083 14.504 145.651 14.096C145.219 13.688 145.003 13.112 145.003 12.368C145.003 11.672 145.219 11.108 145.651 10.676C146.107 10.244 146.719 10.028 147.487 10.028C148.279 10.028 148.891 10.232 149.323 10.64C149.755 11.048 149.971 11.624 149.971 12.368C149.971 13.064 149.743 13.628 149.287 14.06C148.855 14.492 148.255 14.708 147.487 14.708ZM160.693 38V19.1H164.401V23.78L163.357 24.032C163.765 23.144 164.365 22.304 165.157 21.512C165.949 20.696 166.897 20.024 168.001 19.496C169.105 18.968 170.305 18.704 171.601 18.704C173.353 18.704 174.805 19.04 175.957 19.712C177.133 20.36 178.009 21.284 178.585 22.484C179.185 23.684 179.485 25.088 179.485 26.696V38H175.777V27.128C175.777 26.072 175.549 25.172 175.093 24.428C174.661 23.66 174.049 23.084 173.257 22.7C172.489 22.292 171.589 22.1 170.557 22.124C169.669 22.124 168.841 22.28 168.073 22.592C167.329 22.904 166.681 23.312 166.129 23.816C165.577 24.32 165.145 24.884 164.833 25.508C164.545 26.108 164.401 26.72 164.401 27.344V38H162.565C162.085 38 161.689 38 161.377 38C161.065 38 160.837 38 160.693 38Z" fill="white"/>
<path d="M6.57156 83V57.8H10.4596V83H6.57156ZM8.04756 72.488V68.744H23.7076V72.488H8.04756ZM8.33556 61.544V57.8H25.3276V61.544H8.33556ZM42.9299 83.36C40.7459 83.36 38.8019 82.94 37.0979 82.1C35.4179 81.26 34.0859 80.096 33.1019 78.608C32.1419 77.12 31.6619 75.428 31.6619 73.532C31.6619 71.612 32.1419 69.92 33.1019 68.456C34.0859 66.968 35.4179 65.804 37.0979 64.964C38.8019 64.124 40.7459 63.704 42.9299 63.704C45.1139 63.704 47.0459 64.124 48.7259 64.964C50.4059 65.804 51.7259 66.968 52.6859 68.456C53.6699 69.92 54.1619 71.612 54.1619 73.532C54.1619 75.428 53.6699 77.12 52.6859 78.608C51.7259 80.096 50.4059 81.26 48.7259 82.1C47.0459 82.94 45.1139 83.36 42.9299 83.36ZM42.9299 79.976C44.3459 79.976 45.6179 79.7 46.7459 79.148C47.8979 78.596 48.7979 77.84 49.4459 76.88C50.1179 75.896 50.4299 74.78 50.3819 73.532C50.4299 72.26 50.1179 71.144 49.4459 70.184C48.7979 69.224 47.8979 68.468 46.7459 67.916C45.6179 67.364 44.3459 67.088 42.9299 67.088C41.5139 67.088 40.2299 67.364 39.0779 67.916C37.9499 68.468 37.0499 69.236 36.3779 70.22C35.7299 71.18 35.4179 72.284 35.4419 73.532C35.4179 74.78 35.7299 75.896 36.3779 76.88C37.0499 77.84 37.9499 78.596 39.0779 79.148C40.2299 79.7 41.5139 79.976 42.9299 79.976ZM65.4906 83V58.664H69.1986V83H65.4906ZM60.3426 67.7V64.1H75.2106V67.7H60.3426ZM92.8869 83.36C90.7029 83.36 88.7589 82.94 87.0549 82.1C85.3749 81.26 84.0429 80.096 83.0589 78.608C82.0989 77.12 81.6189 75.428 81.6189 73.532C81.6189 71.612 82.0989 69.92 83.0589 68.456C84.0429 66.968 85.3749 65.804 87.0549 64.964C88.7589 64.124 90.7029 63.704 92.8869 63.704C95.0709 63.704 97.0029 64.124 98.6829 64.964C100.363 65.804 101.683 66.968 102.643 68.456C103.627 69.92 104.119 71.612 104.119 73.532C104.119 75.428 103.627 77.12 102.643 78.608C101.683 80.096 100.363 81.26 98.6829 82.1C97.0029 82.94 95.0709 83.36 92.8869 83.36ZM92.8869 79.976C94.3029 79.976 95.5749 79.7 96.7029 79.148C97.8549 78.596 98.7549 77.84 99.4029 76.88C100.075 75.896 100.387 74.78 100.339 73.532C100.387 72.26 100.075 71.144 99.4029 70.184C98.7549 69.224 97.8549 68.468 96.7029 67.916C95.5749 67.364 94.3029 67.088 92.8869 67.088C91.4709 67.088 90.1869 67.364 89.0349 67.916C87.9069 68.468 87.0069 69.236 86.3349 70.22C85.6869 71.18 85.3749 72.284 85.3989 73.532C85.3749 74.78 85.6869 75.896 86.3349 76.88C87.0069 77.84 87.9069 78.596 89.0349 79.148C90.1869 79.7 91.4709 79.976 92.8869 79.976ZM121.208 83.36C119.192 83.36 117.38 82.928 115.772 82.064C114.188 81.2 112.928 80.024 111.992 78.536C111.056 77.048 110.588 75.38 110.588 73.532C110.588 71.66 111.056 69.992 111.992 68.528C112.928 67.04 114.188 65.864 115.772 65C117.38 64.136 119.192 63.704 121.208 63.704C123.176 63.704 124.988 64.04 126.644 64.712C128.324 65.36 129.62 66.272 130.532 67.448L128.48 70.256C127.952 69.656 127.28 69.116 126.464 68.636C125.672 68.156 124.832 67.772 123.944 67.484C123.08 67.196 122.216 67.052 121.352 67.052C119.984 67.052 118.772 67.34 117.716 67.916C116.66 68.468 115.832 69.236 115.232 70.22C114.632 71.18 114.332 72.284 114.332 73.532C114.332 74.78 114.644 75.896 115.268 76.88C115.916 77.84 116.768 78.608 117.824 79.184C118.904 79.736 120.092 80.012 121.388 80.012C122.396 80.012 123.32 79.892 124.16 79.652C125.024 79.388 125.816 79.052 126.536 78.644C127.256 78.212 127.916 77.756 128.516 77.276L130.532 80.012C129.452 80.924 128.108 81.716 126.5 82.388C124.892 83.036 123.128 83.36 121.208 83.36ZM148.047 83.36C145.863 83.36 143.919 82.94 142.215 82.1C140.535 81.26 139.203 80.096 138.219 78.608C137.259 77.12 136.779 75.428 136.779 73.532C136.779 71.612 137.259 69.92 138.219 68.456C139.203 66.968 140.535 65.804 142.215 64.964C143.919 64.124 145.863 63.704 148.047 63.704C150.231 63.704 152.163 64.124 153.843 64.964C155.523 65.804 156.843 66.968 157.803 68.456C158.787 69.92 159.279 71.612 159.279 73.532C159.279 75.428 158.787 77.12 157.803 78.608C156.843 80.096 155.523 81.26 153.843 82.1C152.163 82.94 150.231 83.36 148.047 83.36ZM148.047 79.976C149.463 79.976 150.735 79.7 151.863 79.148C153.015 78.596 153.915 77.84 154.563 76.88C155.235 75.896 155.547 74.78 155.499 73.532C155.547 72.26 155.235 71.144 154.563 70.184C153.915 69.224 153.015 68.468 151.863 67.916C150.735 67.364 149.463 67.088 148.047 67.088C146.631 67.088 145.347 67.364 144.195 67.916C143.067 68.468 142.167 69.236 141.495 70.22C140.847 71.18 140.535 72.284 140.559 73.532C140.535 74.78 140.847 75.896 141.495 76.88C142.167 77.84 143.067 78.596 144.195 79.148C145.347 79.7 146.631 79.976 148.047 79.976ZM145.743 61.184L144.519 59.348L149.667 54.848L152.007 57.8L145.743 61.184ZM168.088 90.92V64.064H171.832V68.42L171.256 68.096C171.424 67.424 171.904 66.764 172.696 66.116C173.488 65.444 174.46 64.892 175.612 64.46C176.788 64.004 178.036 63.776 179.356 63.776C181.396 63.776 183.172 64.196 184.684 65.036C186.22 65.852 187.42 66.992 188.284 68.456C189.148 69.92 189.58 71.612 189.58 73.532C189.58 75.428 189.148 77.12 188.284 78.608C187.42 80.072 186.22 81.224 184.684 82.064C183.172 82.904 181.432 83.324 179.464 83.324C178.048 83.324 176.716 83.096 175.468 82.64C174.244 82.16 173.212 81.572 172.372 80.876C171.556 80.156 171.064 79.46 170.896 78.788L171.832 78.284V90.92H168.088ZM178.852 79.904C180.244 79.904 181.48 79.628 182.56 79.076C183.64 78.5 184.48 77.732 185.08 76.772C185.704 75.812 186.016 74.732 186.016 73.532C186.016 72.332 185.704 71.252 185.08 70.292C184.48 69.332 183.64 68.576 182.56 68.024C181.504 67.472 180.268 67.196 178.852 67.196C177.46 67.196 176.212 67.472 175.108 68.024C174.028 68.576 173.176 69.332 172.552 70.292C171.952 71.252 171.652 72.332 171.652 73.532C171.652 74.732 171.952 75.812 172.552 76.772C173.176 77.732 174.028 78.5 175.108 79.076C176.212 79.628 177.46 79.904 178.852 79.904ZM198.68 83V64.1H202.388V83H198.68ZM200.48 59.708C199.688 59.708 199.076 59.504 198.644 59.096C198.212 58.688 197.996 58.112 197.996 57.368C197.996 56.672 198.212 56.108 198.644 55.676C199.1 55.244 199.712 55.028 200.48 55.028C201.272 55.028 201.884 55.232 202.316 55.64C202.748 56.048 202.964 56.624 202.964 57.368C202.964 58.064 202.736 58.628 202.28 59.06C201.848 59.492 201.248 59.708 200.48 59.708ZM221.137 83.36C219.193 83.36 217.465 82.94 215.953 82.1C214.441 81.236 213.253 80.06 212.389 78.572C211.549 77.084 211.129 75.404 211.129 73.532C211.129 71.612 211.573 69.92 212.461 68.456C213.349 66.968 214.561 65.804 216.097 64.964C217.657 64.124 219.433 63.704 221.425 63.704C222.625 63.704 223.741 63.86 224.773 64.172C225.805 64.484 226.705 64.904 227.473 65.432C228.241 65.936 228.853 66.512 229.309 67.16C229.765 67.784 230.005 68.42 230.029 69.068L229.057 68.996V64.1H232.801V83H229.057V78.104L229.849 78.14C229.801 78.74 229.525 79.352 229.021 79.976C228.541 80.576 227.893 81.14 227.077 81.668C226.285 82.172 225.373 82.58 224.341 82.892C223.333 83.204 222.265 83.36 221.137 83.36ZM222.037 79.94C223.453 79.94 224.701 79.664 225.781 79.112C226.861 78.536 227.701 77.768 228.301 76.808C228.901 75.824 229.201 74.732 229.201 73.532C229.201 72.308 228.901 71.216 228.301 70.256C227.701 69.296 226.861 68.54 225.781 67.988C224.701 67.436 223.453 67.16 222.037 67.16C220.645 67.16 219.409 67.436 218.329 67.988C217.273 68.54 216.433 69.296 215.809 70.256C215.209 71.216 214.909 72.308 214.909 73.532C214.909 74.732 215.209 75.824 215.809 76.808C216.433 77.768 217.273 78.536 218.329 79.112C219.409 79.664 220.645 79.94 222.037 79.94ZM250.336 83.36C248.392 83.36 246.616 83.084 245.008 82.532C243.424 81.98 242.104 81.092 241.048 79.868L243.568 77.636C244.408 78.5 245.38 79.16 246.484 79.616C247.612 80.048 248.86 80.264 250.228 80.264C250.756 80.264 251.296 80.228 251.848 80.156C252.4 80.084 252.904 79.952 253.36 79.76C253.84 79.568 254.212 79.316 254.476 79.004C254.764 78.692 254.908 78.32 254.908 77.888C254.908 77.168 254.428 76.616 253.468 76.232C252.988 76.064 252.412 75.896 251.74 75.728C251.068 75.536 250.3 75.356 249.436 75.188C247.996 74.876 246.736 74.54 245.656 74.18C244.576 73.82 243.7 73.352 243.028 72.776C242.524 72.32 242.14 71.804 241.876 71.228C241.612 70.628 241.48 69.944 241.48 69.176C241.48 68.336 241.696 67.592 242.128 66.944C242.56 66.272 243.148 65.696 243.892 65.216C244.66 64.712 245.548 64.34 246.556 64.1C247.564 63.836 248.656 63.704 249.832 63.704C250.864 63.704 251.908 63.812 252.964 64.028C254.044 64.244 255.064 64.58 256.024 65.036C256.984 65.492 257.788 66.056 258.436 66.728L256.42 69.176C255.844 68.72 255.184 68.312 254.44 67.952C253.696 67.568 252.928 67.28 252.136 67.088C251.368 66.872 250.636 66.764 249.94 66.764C249.364 66.764 248.8 66.8 248.248 66.872C247.696 66.944 247.18 67.076 246.7 67.268C246.244 67.436 245.872 67.676 245.584 67.988C245.32 68.276 245.188 68.624 245.188 69.032C245.212 69.32 245.296 69.596 245.44 69.86C245.608 70.1 245.836 70.316 246.124 70.508C246.556 70.796 247.156 71.06 247.924 71.3C248.716 71.516 249.616 71.72 250.624 71.912C251.896 72.152 253.06 72.44 254.116 72.776C255.172 73.112 256.048 73.532 256.744 74.036C257.344 74.444 257.788 74.936 258.076 75.512C258.388 76.064 258.544 76.712 258.544 77.456C258.544 78.68 258.172 79.736 257.428 80.624C256.708 81.512 255.724 82.196 254.476 82.676C253.228 83.132 251.848 83.36 250.336 83.36Z" fill="white"/>
</svg>
